# xmcd
#
# Track frame offsets:
#	183
#	19950
#	34108
#	53683
#	70133
#	102095
#	118195
#	135408
#	151040
#	164565
#	185700
#
# Disc length: 2698 seconds
#
# Revision: 0
# Processed by: cddbd v1.5.1PL0 Copyright (c) Steve Scherf et al.
# Submitted via: dBpowerAMP V4.0
#
DISCID=8f0a880b
DTITLE=Eric Clapton - Time Pieces
DYEAR=1900
DGENRE=Blues
TTITLE0=Ishot the sheriff (1974)
TTITLE1=After midnight (1970)
TTITLE2=Knockin´ on heavens door (1975)
TTITLE3=Wonderful tonight (1977
TTITLE4=Layla (1970)
TTITLE5=Cocaine (1977)
TTITLE6=Lay down Sally (1977)
TTITLE7=Willie and the hand jive (1974)
TTITLE8=Promises (1978)
TTITLE9=Swing low sweet carriot (1975)
TTITLE10=Let it grow (1974)
EXTD=Producido en 1982
EXTT0=
EXTT1=
EXTT2=
EXTT3=
EXTT4=
EXTT5=
EXTT6=
EXTT7=
EXTT8=
EXTT9=
EXTT10=
PLAYORDER=
